<svg width="302" height="300" viewBox="0 0 302 300" fill="none" xmlns="http://www.w3.org/2000/svg">
<g clip-path="url(#clip0_2703_1750)">
<path d="M203.43 71.5981L211.671 65.623C211.671 65.623 232.652 116.406 194.812 132.09C194.74 131.765 219.291 105.343 203.43 71.5981Z" fill="white"/>
<path d="M176.262 117.827C177.655 119.218 179.149 120.502 180.754 121.649C180.754 121.649 208.973 111.996 183.249 70.8932L193.491 56.6765C193.491 56.6765 206.604 76.0932 204.355 103.724C203.87 109.69 202.17 115.565 198.982 120.668C196.515 124.613 193.224 128.002 189.419 130.682C185.406 133.51 180.846 135.699 175.936 136.368C170.905 137.054 165.782 136.018 161.103 134.165C157.708 132.821 154.5 131.032 151.485 128.985C149.25 127.465 146.903 126.01 144.821 124.279L141.477 121.779C148.444 137.89 150.953 143.724 150.953 143.724C133.453 143.54 121.385 139.657 108.255 127.343C96.99 116.779 91.7977 101.743 92.1517 86.4904C92.737 61.2599 108.213 36.8293 133.169 29.5293C129.763 31.8432 126.633 34.546 123.737 37.4682C114.284 47.0099 107.252 59.1293 104.76 72.3071C101.895 87.4599 105.872 103.235 114.674 115.796C120.432 124.015 128.698 130.171 138.715 132.007L132.795 111.565C132.795 111.565 172.884 132.007 172.889 132.013C164.91 121.727 147.193 95.7626 150.404 71.6126C150.404 71.6126 152.276 55.9293 182.248 32.7793L188.617 43.9821C188.617 43.9821 164.64 55.5571 157.895 72.3599C157.895 72.3599 160.429 102.013 176.256 117.827H176.262Z" fill="white"/>
<path d="M205.863 128.415L207.917 138.251C207.917 138.251 176.005 172.551 119.417 153.559C61.0707 133.979 89.3174 67.8536 90.3709 68.173C89.309 68.1341 78.1999 123.265 118.344 140.112C157.472 156.531 199.021 140.609 205.86 128.415H205.863Z" fill="white"/>
<path d="M121.287 96.4291L115.46 90.6211L109.632 96.4291L115.46 102.237L121.287 96.4291Z" fill="white"/>
<path d="M130.652 96.4294L124.824 90.6211L118.997 96.4291L124.824 102.237L130.652 96.4294Z" fill="white"/>
<path d="M158.501 170.164L150.53 162.219L142.558 170.164L150.53 178.109L158.501 170.164Z" fill="white"/>
<path d="M157.577 184.326C171.944 174.646 217.875 142.026 228.27 114.057V126.454C228.27 142.648 219.293 157.518 204.94 165.104L153.266 192.415C153.266 189.171 154.882 186.143 157.577 184.326Z" fill="white"/>
<path d="M144.423 184.326C130.055 174.646 84.125 142.026 73.7294 114.057C73.7294 137.879 86.9344 159.754 108.052 170.915L148.734 192.418C148.734 189.174 147.118 186.146 144.423 184.329V184.326Z" fill="white"/>
<path d="M147.778 195.213C144.147 197.66 132.539 205.905 129.913 212.972V209.838C129.913 205.747 132.182 201.988 135.811 200.069L148.871 193.166C148.871 193.985 148.461 194.752 147.781 195.21L147.778 195.213Z" fill="white"/>
<path d="M154.448 194.935C158.079 197.382 169.687 205.627 172.313 212.693C172.313 206.674 168.977 201.143 163.64 198.324L153.358 192.891C153.358 193.71 153.768 194.477 154.448 194.935Z" fill="white"/>
<path d="M85.6616 253.604H76.743L75.3874 257.693H68.0386L77.2068 232.626H85.2692L94.402 257.693H87.0172L85.6616 253.604ZM83.9135 248.27L81.2023 240.164L78.5268 248.27H83.9135ZM103.316 231.382V257.693H96.3239V231.382H103.316ZM128.289 257.693L120.405 246.706V257.693H113.413V232.626H120.405V243.435L128.218 232.626H136.28L127.04 244.786L136.744 257.693H128.289ZM142.473 235.897C141.236 235.897 140.237 235.565 139.476 234.902C138.738 234.214 138.37 233.361 138.37 232.342C138.37 231.299 138.738 230.433 139.476 229.746C140.237 229.059 141.236 228.715 142.473 228.715C143.685 228.715 144.66 229.059 145.398 229.746C146.159 230.433 146.539 231.299 146.539 232.342C146.539 233.361 146.159 234.214 145.398 234.902C144.66 235.565 143.685 235.897 142.473 235.897ZM145.933 237.746V257.693H138.941V237.746H145.933ZM161.366 251.755V257.693H158.334C153.22 257.693 150.664 255.168 150.664 250.119V243.542H148.202V237.746H150.664V232.91H157.692V237.746H161.33V243.542H157.692V250.226C157.692 250.771 157.81 251.162 158.048 251.399C158.31 251.637 158.738 251.755 159.333 251.755H161.366ZM163.075 247.702C163.075 245.639 163.443 243.838 164.181 242.297C164.942 240.757 165.964 239.571 167.249 238.742C168.557 237.912 170.007 237.497 171.601 237.497C172.98 237.497 174.169 237.77 175.168 238.315C176.167 238.86 176.94 239.595 177.487 240.519V237.746H184.479V257.693H177.487V254.919C176.94 255.844 176.155 256.579 175.133 257.124C174.134 257.669 172.957 257.942 171.601 257.942C170.007 257.942 168.557 257.527 167.249 256.697C165.964 255.868 164.942 254.682 164.181 253.142C163.443 251.577 163.075 249.764 163.075 247.702ZM177.487 247.702C177.487 246.422 177.13 245.414 176.417 244.679C175.727 243.945 174.871 243.577 173.848 243.577C172.802 243.577 171.934 243.945 171.244 244.679C170.554 245.39 170.21 246.398 170.21 247.702C170.21 248.982 170.554 250.001 171.244 250.759C171.934 251.494 172.802 251.862 173.848 251.862C174.871 251.862 175.727 251.494 176.417 250.759C177.13 250.025 177.487 249.005 177.487 247.702ZM186.965 247.702C186.965 245.639 187.334 243.838 188.071 242.297C188.832 240.757 189.855 239.571 191.139 238.742C192.447 237.912 193.898 237.497 195.491 237.497C196.871 237.497 198.06 237.77 199.059 238.315C200.058 238.86 200.831 239.595 201.378 240.519V237.746H208.37V257.693H201.378V254.919C200.831 255.844 200.046 256.579 199.023 257.124C198.024 257.669 196.847 257.942 195.491 257.942C193.898 257.942 192.447 257.527 191.139 256.697C189.855 255.868 188.832 254.682 188.071 253.142C187.334 251.577 186.965 249.764 186.965 247.702ZM201.378 247.702C201.378 246.422 201.021 245.414 200.307 244.679C199.618 243.945 198.761 243.577 197.739 243.577C196.692 243.577 195.824 243.945 195.135 244.679C194.445 245.39 194.1 246.398 194.1 247.702C194.1 248.982 194.445 250.001 195.135 250.759C195.824 251.494 196.692 251.862 197.739 251.862C198.761 251.862 199.618 251.494 200.307 250.759C201.021 250.025 201.378 249.005 201.378 247.702ZM218.99 240.519C219.536 239.571 220.309 238.837 221.308 238.315C222.307 237.77 223.484 237.497 224.84 237.497C226.433 237.497 227.872 237.912 229.157 238.742C230.465 239.571 231.487 240.757 232.225 242.297C232.985 243.838 233.366 245.639 233.366 247.702C233.366 249.764 232.985 251.577 232.225 253.142C231.487 254.682 230.465 255.868 229.157 256.697C227.872 257.527 226.433 257.942 224.84 257.942C223.484 257.942 222.307 257.681 221.308 257.159C220.309 256.614 219.536 255.868 218.99 254.919V257.693H211.997V231.382H218.99V240.519ZM226.267 247.702C226.267 246.398 225.91 245.39 225.197 244.679C224.507 243.945 223.651 243.577 222.628 243.577C221.605 243.577 220.738 243.945 220.024 244.679C219.334 245.414 218.99 246.422 218.99 247.702C218.99 249.005 219.334 250.025 220.024 250.759C220.738 251.494 221.605 251.862 222.628 251.862C223.651 251.862 224.507 251.494 225.197 250.759C225.91 250.001 226.267 248.982 226.267 247.702Z" fill="white"/>
</g>
<defs>
<clipPath id="clip0_2703_1750">
<rect width="301" height="300" fill="white" transform="translate(0.5)"/>
</clipPath>
</defs>
</svg>
